<?xml version="1.0" encoding="UTF-8"?> <svg xmlns="http://www.w3.org/2000/svg" xml:space="preserve" width="600" height="296" style="shape-rendering:geometricPrecision;text-rendering:geometricPrecision;image-rendering:optimizeQuality;fill-rule:evenodd;clip-rule:evenodd" viewBox="0 0 59984 29600"><defs><style>.fil0{fill:#1e3258;fill-rule:nonzero}</style></defs><path class="fil0" d="M1229 18334c805 0 967 600 1035 43h123l-28 1176h-122c-85-1410-1507-1338-1507-529 0 917 1836 1009 1836 2203 0 1086-1396 1229-2078 834-208-120-265-116-299 159H69l22-1389h123c98 1630 1298 1424 1554 1023 221-346 57-777-294-1055-583-462-1379-702-1379-1508 0-666 550-956 1134-956v-1zm3211 1009c1481 0 1413 1722 1107 2304-437 831-1798 814-2218 0-298-578-380-2304 1111-2304zm0 108c-727 0-635 1931-409 2382 256 512 975 562 975-1031 0-526-81-1351-566-1351zm3136-108c1131 0 1133 1024 562 1024-479 0-499-631-63-742-169-250-1080-409-1080 1117 0 1462 1083 1340 1448 668l102 36c-392 1246-2261 1086-2261-625 0-838 459-1479 1293-1479l-1 1zm2441 16v2324c0 283 86 386 363 386v112H8980v-112c276 0 364-103 364-386v-1677c0-300-68-475-364-475v-112c207 20 960 15 1037-60zm-374-1303c587 0 587 779 0 779-586 0-585-779 0-779zm2469 1287c712 0 1004 461 1004 1187h-1801l-5-103h1186c40-1016-472-1200-764-735-100 158-162 418-187 778l22 31c2 8-142 939 368 1272 374 245 840 86 1079-352l102 42c-374 1186-2278 1116-2278-626 0-546 168-1053 615-1322 158-96 566-217 659-172zm2772 0c305 0 575 103 700 396l-64 54c-209-431-1126-660-1126 1008 0 452 39 1243 581 1243 302 0 499-273 529-609l37 150c-47 217-134 383-262 498-350 313-1598 364-1598-1289 0-807 392-1454 1203-1454v3zm1277-1346v3601c0 290 72 470 363 470v111c-313-31-740-23-1035 59v-3601c0-295-69-470-364-470v-111c335 32 720 19 1036-59zm1486 4220c-795 0-963-944-328-1280 449-239 1087-275 1087-595 0-397 93-1065-684-860-82 22-150 63-203 123 416 110 403 737-90 737-550 0-587-998 721-998 746 0 929 325 929 977 0 215-30 1548 31 1654 70 123 229 23 309-46l59 91c-381 289-1051 324-1068-251-174 291-419 449-763 449v-1zm320-298c211 0 413-191 439-278v-1079c-195 292-808 318-808 931 0 252 125 426 369 426zm3088-2576c305 0 575 103 700 396l-64 54c-209-431-1126-660-1126 1008 0 452 40 1243 582 1243 301 0 498-273 528-609l37 150c-46 217-134 383-262 498-350 313-1598 364-1598-1289 0-807 392-1454 1203-1454v3zm1277-1346v3601c0 290 72 470 363 470v111c-312-31-740-23-1035 59v-3601c0-295-68-470-364-470v-111c335 32 720 19 1036-59zm2088 1346c712 0 1004 461 1004 1187h-1801l-5-103h1186c40-1016-472-1200-764-735-99 158-162 418-187 778l22 31c2 8-142 939 368 1272 374 245 840 86 1079-352l102 42c-374 1186-2278 1116-2278-626 0-546 168-1053 615-1322 159-96 566-217 659-172zm2960-945 1587 5c1645 0 1625 1480 277 1774v11c1649 150 1500 1520 602 1870-556 217-1694 63-2469 123v-107c355-20 412-74 412-459 0-383 30-2749-30-2941-47-147-206-163-382-167v-108l3-1zm1496 107c-308 0-353 118-353 461 0 386-33 2738 33 2933 96 282 773 177 981-82 221-275 523-1553-714-1553h-486v-91c626 0 1137 94 1137-871 0-457-124-795-598-795v-2zm3847 838c639 0 634 881 113 881-434 0-479-482-143-690-255-141-704 259-704 773v1320c0 347 180 439 523 439v112h-1560v-112c276 0 364-103 364-385v-1683c0-295-69-470-364-470v-112c335 32 719 20 1035-58v556c126-297 394-573 737-573l-1 2zm1560 2874c-795 0-965-943-330-1280 450-239 1087-275 1087-595 0-397 94-1065-683-860-82 22-150 63-203 123 415 110 403 737-90 737-551 0-587-998 720-998 746 0 929 325 929 977 0 217-31 1546 33 1654 72 122 228 23 309-46l59 91c-381 289-1051 324-1068-251-174 291-419 449-763 449v-1zm320-298c212 0 412-193 437-278v-1079c-194 292-807 318-807 931 0 263 153 443 370 426zm2827-2576c623 0 782 477 839 5h117l-22 931h-117c-198-1476-1787-664-740 53 457 313 992 618 992 1147 0 686-928 1000-1579 615-151-90-227-103-270 129h-117l22-1068h117c161 1284 919 1044 1077 813 108-158 79-462-100-635-472-454-1095-667-1095-1260 0-495 445-722 876-722v-8zm2596 16v2324c0 281 85 386 364 386v112h-1400v-112c276 0 363-103 363-386v-1677c0-298-66-475-363-475v-112c207 20 959 15 1036-60zm-374-1303c586 0 586 779 0 779-587 0-586-779 0-779zm2126-59v3686c0 281 85 386 364 386v112h-1401v-112c276 0 364-103 364-386v-3044c0-300-65-470-364-470v-112c209 20 957 14 1037-60zm2046 1346c712 0 1004 461 1004 1187h-1801l-5-103h1186c40-1015-471-1200-764-735-99 158-162 418-186 778l21 31c2 8-142 939 368 1272 374 245 841 86 1079-352l102 42c-374 1186-2278 1115-2278-626 0-546 168-1053 615-1322 159-96 565-217 659-172zm2527 16v2324c0 281 85 386 364 386v112h-1400v-112c276 0 363-103 363-386v-1677c0-298-66-475-363-475v-112c207 20 959 15 1036-60zm-374-1303c586 0 586 779 0 779-587 0-586-779 0-779zm2896 1287c639 0 634 881 113 881-434 0-479-482-143-690-255-141-704 259-704 773v1320c0 347 180 439 523 439v112h-1560v-112c276 0 364-103 364-385v-1683c0-295-69-470-364-470v-112c334 32 719 20 1035-58v556c126-297 394-573 737-573l-1 2zm1560 2874c-796 0-965-943-330-1280 450-239 1087-275 1087-595 0-397 93-1065-684-860-81 22-149 63-203 123 416 110 404 737-89 737-551 0-587-998 720-998 746 0 929 325 929 977 0 217-31 1546 33 1654 72 122 228 23 309-46l59 91c-381 289-1051 324-1068-251-175 291-419 449-763 449v-1zm321-298c212 0 412-193 437-278v-1079c-194 292-807 318-807 931 0 263 153 443 370 426zm4466-2576c304 0 574 104 700 396l-64 54c-210-431-1127-660-1127 1008 0 452 40 1243 582 1243 302 0 498-273 529-609l36 150c-46 217-133 383-261 498-350 312-1598 364-1598-1289 0-807 392-1454 1203-1454v3zm1276-1346v3601c0 290 72 470 364 470v111c-313-31-742-23-1037 59v-3601c0-295-68-470-363-470v-111c502 48 608 1 1035-59h1zm2090 1346c712 0 1004 461 1004 1187h-1801l-5-103h1186c40-1015-471-1200-764-735-100 158-162 418-187 778l22 31c2 8-142 939 368 1272 374 245 840 86 1079-352l102 42c-374 1186-2278 1115-2278-626 0-546 168-1053 615-1322 159-96 566-217 659-172zM1838 24734c984 0 1151 828 1224 73h123l-22 1272h-122c-59-430-84-631-357-908-539-545-1530-485-1793 823-229 1138 110 2965 1467 2472 264-95 506-350 583-611 44-148 76-345 101-590h122l22 1324h-122c-74-751-261 73-1230 73-2183 0-2313-2844-940-3682 273-167 589-250 945-250l-1 4zm2949 1036v2324c0 283 86 386 364 386v112H3750v-112c276 0 364-103 364-386v-1677c0-300-67-475-364-475v-112c207 20 960 14 1037-60zm-375-1303c586 0 586 779 0 779s-585-779 0-779zm2865 1287c640 0 634 881 113 881-432 0-482-481-144-690-255-141-704 259-704 773v1320c0 347 180 439 523 439v112H5503v-112c277 0 364-103 364-386v-1682c0-295-68-470-364-470v-112c335 32 720 20 1036-58v556c126-297 394-573 737-573l1 2zm3365 16v2244c0 290 72 470 364 470v112c-306-31-750-24-1036 58v-534c-325 720-1425 730-1572 70-113-509 65-1870-114-2135-52-76-147-114-286-114v-112c335 32 719 19 1035-59l25 2436c99 455 912 286 912-488v-1309c0-295-68-470-363-470v-112c334 32 719 20 1035-58v1zm2490-16c640 0 635 881 113 881-432 0-482-481-144-690-255-141-704 259-704 773v1320c0 347 180 439 523 439v112h-1561v-112c276 0 363-103 363-386v-1682c0-295-68-470-363-470v-112c334 32 719 20 1035-58v556c126-297 394-573 737-573l1 2zm1800 3842c-1412 0-1402-825-540-1032l37 86c-316 183-382 856 567 856 905 0 1039-621 771-871-297-277-1548 152-1548-560 0-344 362-554 705-704l58 48c-540 282-356 524-106 524 546 0 1571-112 1571 684 0 718-830 973-1519 973l4-4zm49-2142c-1287 0-1259-1321-520-1609 533-208 1540-118 1540 759 0 615-463 850-1020 850zm0-97c486 0 362-1155 253-1343-124-215-600-389-600 590 0 336 39 753 347 753zm806-1148-102-37c217-539 977-653 977-143 0 483-770 413-439-271l53 22c-255 97-374 199-490 432l1-3zm2185-439v2324c0 283 86 386 364 386v112h-1400v-112c276 0 363-103 363-386v-1677c0-300-67-475-363-475v-112c207 20 960 14 1036-60zm-374-1303c586 0 586 779 0 779-587 0-586-779 0-779zm1832 4161c-795 0-962-944-328-1280 449-239 1087-275 1087-596 0-396 93-1064-684-859-82 22-150 63-203 122 416 111 403 738-90 738-549 0-587-998 721-998 746 0 929 324 929 977 0 215-30 1548 31 1654 71 123 229 23 309-46l59 91c-380 288-1051 324-1068-251-174 291-419 448-763 448zm322-298c211 0 413-192 438-278v-1079c-194 292-808 318-808 931 0 252 125 426 370 426zm4759-3522c1280 0 2015 578 2015 1849 0 1356-950 1989-2279 1929l-1323 5v-106c355-20 412-74 412-459 0-383 30-2749-30-2941-47-148-206-163-382-168v-107h1587v-2zm-47 97c-334 0-395 104-395 461v2671c0 355 66 461 400 461 1111 0 1288-849 1288-1816 0-969-203-1773-1293-1773v-4zm3909 849c712 0 1004 461 1004 1186h-1801l-5-102h1187c39-1016-472-1200-765-735-99 158-162 418-186 777l21 32c2 8-142 938 368 1272 375 245 841 86 1079-353l102 43c-373 1186-2277 1116-2277-626 0-546 167-1053 614-1322 159-96 566-217 659-172zm3211 0c640 0 634 881 113 881-434 0-479-482-143-690-254-141-704 259-704 773v1320c0 347 180 439 523 439v112h-1560v-112c276 0 364-103 364-386v-1682c0-295-68-470-364-470v-112c335 32 720 20 1036-58v556c125-297 393-573 737-573l-2 2zm2666 0c628 0 743 373 743 903v1437c0 274 73 386 342 386v112h-1304v-112c242 0 289-137 289-386l-22-1877c-93-471-894-274-894 491 0 297-50 1549 64 1694 43 53 117 81 225 81v111h-1325v-111c276 0 363-103 363-386v-1682c0-295-68-470-363-470v-112c334 32 719 19 1035-59v534c165-365 464-550 845-550l2-4zm1609 0c628 0 743 374 743 903v1437c0 281 84 386 363 386v112h-1325v-112c241 0 289-137 289-386l-25-1877c-98-456-894-297-917 499l-27-384c97-221 225-372 384-454 272-139 503-118 515-124zm2163 2874c-795 0-964-943-329-1280 449-239 1087-275 1087-596 0-396 93-1064-684-859-82 22-150 63-203 122 416 110 403 738-90 738-550 0-587-998 721-998 746 0 929 324 929 977 0 217-31 1546 33 1654 72 122 228 23 309-46l58 91c-380 289-1051 324-1068-251-174 291-418 448-763 448zm321-298c211 0 412-193 437-278v-1079c-194 292-808 318-808 931 0 262 153 443 371 426zm2784-3377v881h684v107h-684v2126c0 475 470 504 673-53l97 42c-252 825-1018 656-1244 433-181-178-198-466-198-748v-1801l-470 1v-107h470v-742c237-8 465-42 673-139h-1zm2323 801c1481 0 1413 1722 1107 2303-437 833-1798 814-2218 0-298-577-380-2303 1111-2303zm0 107c-726 0-635 1932-409 2383 256 512 975 562 975-1031 0-526-81-1352-566-1352zm2687-1453v3686c0 281 85 386 364 386v112h-1400v-112c276 0 363-103 363-386v-3044c0-301-65-470-363-470v-112c208 20 957 14 1036-60zm2026 1346c1482 0 1413 1722 1108 2303-438 833-1798 814-2218 0-298-577-380-2303 1110-2303zm0 107c-726 0-634 1932-409 2383 256 512 976 562 976-1031 0-526-82-1352-567-1352zm587-1629c319 278-285 660-481 812-110 86-242 202-395 348l-58-48c295-509 423-1120 729-1163 76-11 145 6 205 53v-2zm2164 5364c-1411 0-1404-825-540-1032l37 86c-316 183-383 856 567 856 907 0 1040-621 772-871-297-277-1547 152-1547-560 0-343 363-554 705-704l59 48c-542 283-355 524-106 524 545 0 1570-112 1570 684 0 717-828 973-1517 973v-4zm49-2142c-1287 0-1260-1320-521-1609 534-208 1541-118 1541 759 0 614-462 850-1020 850zm0-97c485 0 362-1155 253-1343-125-215-601-389-601 590 0 336 40 753 348 753zm806-1148-101-37c217-539 977-653 977-143 0 483-770 413-439-271l54 22c-256 97-375 199-491 432v-3zm2185-439v2324c0 281 85 386 364 386v112h-1401v-112c277 0 364-103 364-386v-1677c0-298-66-475-364-475v-112c208 20 960 14 1037-60zm-374-1303c586 0 586 779 0 779-587 0-586-779 0-779zm2457 1287c1132 0 1133 1024 563 1024-479 0-500-631-63-742-182-258-1080-395-1080 1117 0 1462 1083 1340 1448 667l102 37c-393 1246-2261 1085-2261-625 0-839 459-1480 1292-1480l-1 2zm2116 2874c-796 0-965-943-330-1280 450-239 1087-275 1087-596 0-396 93-1064-683-859-82 22-150 63-203 122 415 110 403 738-90 738-551 0-587-998 720-998 746 0 929 324 929 977 0 217-31 1546 33 1654 72 122 228 23 309-46l59 91c-381 289-1051 324-1068-251-175 291-419 448-763 448zm320-298c212 0 412-193 437-278v-1079c-194 292-808 318-808 931 0 262 154 443 371 426zM10244 5663c-76-1228-720-2665-2171-2665-914 0-1549 594-1463 1575 1152 433 2377 794 3636 1097v-8l-2 1zm-4612 4639c-160-479-258-994-292-1547h-297l-18 2492c271-132 556-264 856-395-98-169-184-350-251-552l2 2zm5123-1792c-819-1384-3120-2177-3888-3215-148-200-231-443-259-720-461-173-910-360-1346-556-311 654-271 1630 112 2248 913 1473 3269 2012 3831 3416 562-159 1161-315 1799-462-45-265-124-505-246-712l-3 1zm4430-53V7385c1023 0 2030-75 2580 759 481-49 976-97 1485-139-607-501-1354-712-2318-800v-26c358-77 667-181 938-308-301-27-603-56-907-87-481 460-1056 383-1776 383v-591c-589-78-1181-165-1773-263v2426c566-98 1156-192 1773-281l-2-1zm6179-608c635-39 1289-73 1966-102v-581c-616-14-1272-34-1959-66l-5 747-2 2zm12024-215v-471l-1774-3v474h1774zM58903 170l-9895 5211c-72 369-124 655-179 1033-1628 781-3558 1493-5560 1543-747 19-1841-189-2491-606C47101 4960 55863 0 55863 0H48c1159 1712 3006 3020 5214 4019 446-928 1547-1304 2538-1304 1514 0 1810 673 2226 673 211 0 251-322 285-568h298l-64 2925c946 220 1907 408 2872 568 0-510 47-2398-71-2775-112-358-501-395-925-407v-259l3041 26c1212-27 2301-35 3085 557 1250 942 919 2672-671 3418 1220 109 2400 184 3498 233 152-2519 1835-4414 4410-4414 2010 0 2437 1256 2775 885 90-99 152-333 188-704h297l-51 3079h-298c-140-1047-202-1530-866-2200-522-526-1093-765-1850-765-2036 0-2596 2510-2646 4181 2759 62 4716-21 5064-11l3221 4V4242c0-894-115-1086-995-1112v-258l2885 13c1865-39 3486 30 4638 1146 765 740 1158 1790 1191 3143h-1860v462h1859c-129 2858-2132 4396-4988 4396-1169 0-2535-97-3727 1v-259c863-54 996-179 996-1113V7638c-2767 0-5629 1-8285 113 48 1713 638 4165 2724 4165 705 0 1316-230 1812-737 285-259 478-567 582-925 103-358 185-835 245-1429h298l51 3208h-297c-123-1333-432-618-1597-72-1014 475-2705 247-3693-304-1383-772-2018-2187-2088-3803-731 45-1436 96-2115 154 1162 965 981 3010-855 3728-844 330-1667 311-2704 278-701-22-2543-40-3274 20v-258c863-54 996-179 996-1113V8743c-861 150-1663 313-2411 485 500 3001-3185 3553-4990 2509-520-300-636-264-725 389h-297l35-872c-2634 1283-3934 2659-5018 3644h58267c681 0 1238-557 1238-1238V1238c0-453-248-852-614-1068h1zM36182 3575c-458-315-1069-472-1836-472-811 0-958 252-958 1112v2948l4085 5c-15-863-114-1588-301-2170-203-633-532-1107-989-1423h-1zm-2607 8002c350 411 1963 236 2666-292 1020-767 1208-2300 1232-3652h-4085v3051c0 449 63 747 188 893h-1zm-27205-117c825 727 2956 699 2956-1100 0-246-42-471-123-676-1283 366-2377 761-3319 1171 134 231 294 437 486 606v-1zm8893-116c117 352 436 388 842 388 1455 0 2005-866 2005-2264 0-544-116-984-343-1324-909 94-1769 199-2580 314 0 538-54 2491 77 2886h-1zm2226-6289c0-1109-303-1927-1450-1927-742 0-854 281-854 1111v2334c598 79 1191 149 1778 208 435-422 526-1114 526-1726z"></path></svg> 